<?xml version="1.0" encoding="UTF-8"?>
<svg viewBox="0 0 396.561 348.835" xmlns="http://www.w3.org/2000/svg">
 <path d="
 m79.0188,55.3507
 5.3689.179
 .7158,1.7896
 h4.1162
 l1.4317-1.2527 4.8321.7158 .1789,3.0424-1.0738.5369-.1789,3.5793 2.8634,2.3265v2.6845h1.7896l.358-1.4317 7.3373.7158 9.485,2.1476 2.327,1.7896 4.653-.1789 3.758-3.5793 3.4-1.4317-3.221-.8948-1.79-1.9687 2.685-2.6844 .895-3.7583 5.369-3.7582 5.19-2.6844 8.232-2.1476 6.443-4.2951 4.832-6.8007 1.968-8.0533-.716-10.201 1.79-5.9058 4.653-2.8634 5.727-1.25273 8.411-4.47413 2.685,5.54796-.895,3.7582 4.653,3.5793 3.579,1.9685 4.116-3.9371 3.043,3.4003 .537,3.5793 2.326,3.4002 5.19-.7158 2.685,3.5793 .536,2.3265 5.727-.3579 3.043-.3579 2.326,2.1475-.895,5.19 2.148,1.6106-1.074,2.6845 2.148,1.6106 7.158-.1789 3.043-2.8634 3.042-5.7269v7.8745l1.79,5.3689 9.664,3.5792 4.653,5.3689 3.758-.1789 2.863-2.5055 3.043,3.4003 6.8-.7159 3.222-1.7896 3.937,1.7896 6.801,9.1272 3.758.358-.179-1.9687 3.937-.5368 2.685,2.8634 4.295-.5369 1.073-1.7897 2.864.358 2.684,3.2213 8.054-1.4317 6.979,2.1476-1.252,6.9795-5.727,5.9059-3.043,20.0437 1.074,6.98-1.789,5.727 1.61,4.653 .537,4.116-2.863,3.579-5.548.179-.358-2.505-1.969.537-4.295,3.579v2.863l3.758-.895-.716,2.685-7.695,12.348-4.295.716-.537,8.412-6.622,6.263 1.074,1.969-1.789,2.863v2.506l2.863,1.789-1.611,3.58-3.758,1.789 2.148,2.864 4.653-1.253 2.147-2.327v-1.968l-1.968-1.969 2.326-1.968 4.295-.358 4.653-3.222 5.011,5.548-2.147,4.832 2.505.179 5.011,6.98-2.326,3.579-3.043,1.432 .179,3.4 2.506,1.969 2.863.358 .358,4.474 5.011,3.758v6.443l-6.264,4.474h-5.369l.179,4.116 2.864,1.611 .895,3.4 6.621,1.969v8.411l-3.579,2.863 3.758,2.864-2.326.895v2.505l5.727,4.295h3.937l1.968,1.611 8.949.895 1.968-3.58 1.79,4.832-1.253,4.295-2.684,3.759 1.789,3.4-5.011,2.685-4.295,1.968-1.968,4.653-3.043,1.611-2.326,4.653-4.474,2.505-.537,6.98-7.338,1.074-3.758,3.758-7.338,1.253-8.232-1.432-9.843-2.684v-3.938l-3.937-.179-2.327,1.432-14.138-.358-2.147-3.937-4.117,1.253-6.979-.358-2.864-3.043-13.601,10.38-3.042.537-5.548,5.19-3.4,7.338 .179,9.485 1.789,7.516-1.61.895-3.759.716-6.442,5.548-5.19-.358-3.759-2.506-4.832.537-.716,2.148h-4.474l-1.073-3.222-5.369-2.684-.179-3.042-6.443-2.148-1.969,2.148-2.326-4.474-5.548.357-1.79-2.863-5.547-.716-7.159-1.253 1.432,5.727-9.664.716-11.633-1.253v-2.684l-6.98-1.969-6.442,1.79-5.19-6.801h-8.2326l-5.3689-3.4-.8948-2.147-.8948-.179-1.2528,2.863-2.1476-.358v-2.326l1.4318-.895-.179-5.727-9.1272-1.432-1.9686-2.863 4.4741-1.432 4.8321-5.727 1.4317-7.516 3.2213-10.559 1.6107-11.454 1.4317-11.454 3.9372.895-3.5793-4.653 .8948-13.243 .8949-12.349 2.5055-1.431 2.8634,2.505 4.6534,6.264 2.684,6.801-.895-11.275-5.906-6.085-7.695-4.116 .5369-5.727-4.2951-4.474 .8948-3.4 2.8634,2.505 1.9686,3.221 2.6845-1.789-.3579-4.653-3.4004-3.401h-4.474l-2.6845,2.327-3.0424-2.685 2.3265-3.758 3.5793,1.79h4.832l-1.6106-2.685-5.3689-2.684-5.369-2.148-4.2951-3.579-.3579-5.369-5.7269-5.369 .5369-3.579 2.6845-4.295-1.6107-3.042-3.2213-.537-1.4318-4.474-5.0109.357-1.6107-3.221 .8948-6.085-2.1476-1.789-5.9058,1.073-1.9686-2.147h-2.1475l-1.7897,2.147-2.5055-1.073 .179-4.116-2.3265-2.506-2.1476.537-3.9372,2.684-2.5055-.537-.3579-2.684 3.7582-.358-3.4003-3.4-6.4427-1.79-1.6107-1.789-2.8634.179-2.5055,2.863-3.5793-.358-2.3265-4.116v-3.758l-4.832-1.432-1.78964-.537 .35792-1.969 1.78962-1.431 5.9058-.179 1.4317,1.073 2.3266-.178 .1789-2.864-2.6844-.716-3.0424.537-2.1476-.537 .358-2.684 1.9686-.179 5.1899.537v-2.148l-3.4003-1.432-2.3265,1.253-4.4741.358-2.1476-4.474 1.7896-3.9372 5.369-1.9686 6.4426-1.4317 5.9059-.7159 4.4741,1.6107 .3579-1.7896h6.8006l1.0738-4.2951 4.1162-.179 6.8006.8948 3.5793,4.653 2.6844,4.6531 2.1476,2.5055 3.5793-.7159 2.5054-3.7582 6.8007,2.1476 1.2527-1.9686 6.2638-1.0738 1.4317,2.3265 5.011.179 2.3265-2.5055-1.7897-2.8634-.7158-14.675-5.3689-8.0534-1.2528-5.7269-.1789-3.7582-1.2528-2.6845" fill="none" stroke="#000"/>
 </svg>
