<?xml version="1.0" encoding="UTF-8" standalone="no"?>
<!-- Created with Inkscape (http://www.inkscape.org/) -->
<svg
   xmlns:dc="http://purl.org/dc/elements/1.1/"
   xmlns:cc="http://web.resource.org/cc/"
   xmlns:rdf="http://www.w3.org/1999/02/22-rdf-syntax-ns#"
   xmlns:svg="http://www.w3.org/2000/svg"
   xmlns="http://www.w3.org/2000/svg"
   xmlns:sodipodi="http://sodipodi.sourceforge.net/DTD/sodipodi-0.dtd"
   xmlns:inkscape="http://www.inkscape.org/namespaces/inkscape"
   width="21.047852"
   height="9.9121094"
   id="svg2"
   sodipodi:version="0.32"
   inkscape:version="0.45.1"
   version="1.0"
   sodipodi:docbase="C:\Users\Glenn\Pictures"
   sodipodi:docname="End (Script MT Bold).svg"
   inkscape:output_extension="org.inkscape.output.svg.inkscape">
  <defs
     id="defs4" />
  <sodipodi:namedview
     id="base"
     pagecolor="#ffffff"
     bordercolor="#666666"
     borderopacity="1.0"
     gridtolerance="10000"
     guidetolerance="10"
     objecttolerance="10"
     inkscape:pageopacity="0.0"
     inkscape:pageshadow="2"
     inkscape:zoom="51.960102"
     inkscape:cx="10.523926"
     inkscape:cy="4.9560547"
     inkscape:document-units="px"
     inkscape:current-layer="layer1"
     inkscape:window-width="1280"
     inkscape:window-height="750"
     inkscape:window-x="-8"
     inkscape:window-y="-8" />
  <metadata
     id="metadata7">
    <rdf:RDF>
      <cc:Work
         rdf:about="">
        <dc:format>image/svg+xml</dc:format>
        <dc:type
           rdf:resource="http://purl.org/dc/dcmitype/StillImage" />
      </cc:Work>
    </rdf:RDF>
  </metadata>
  <g
     inkscape:label="Layer 1"
     inkscape:groupmode="layer"
     id="layer1"
     transform="translate(-317.54617,-428.33527)">
    <path
       style="font-size:14px;font-style:normal;font-variant:normal;font-weight:bold;font-stretch:normal;text-align:start;line-height:125%;writing-mode:lr-tb;text-anchor:start;fill:#ff0000;fill-opacity:1;stroke:none;stroke-width:1px;stroke-linecap:butt;stroke-linejoin:miter;stroke-opacity:1;font-family:Script MT Bold"
       d="M 324.59402,436.56573 C 324.00613,437.13995 323.41596,437.5615 322.82352,437.83038 C 322.23106,438.09926 321.56114,438.2337 320.81375,438.2337 C 319.82482,438.2337 319.03299,437.99445 318.43826,437.51593 C 317.84354,437.03742 317.54617,436.40851 317.54617,435.62921 C 317.54617,434.95018 317.78999,434.35431 318.27762,433.84161 C 318.76525,433.32892 319.51264,432.97232 320.51981,432.77179 C 319.5491,432.40265 319.06375,431.78058 319.06375,430.90558 C 319.06375,430.20832 319.39871,429.60562 320.06863,429.09747 C 320.73855,428.58934 321.54519,428.33528 322.48856,428.33527 C 323.16759,428.33528 323.65977,428.46858 323.96512,428.73517 C 324.27045,429.00178 324.42312,429.24445 324.42313,429.4632 C 324.42312,429.59992 324.30919,429.81184 324.08133,430.09894 C 323.85346,430.38606 323.68712,430.52961 323.58231,430.5296 C 323.45925,430.52961 323.37039,430.35643 323.3157,430.01007 C 323.18809,429.23534 322.87592,428.84797 322.37918,428.84796 C 321.99181,428.84797 321.6409,429.06444 321.32645,429.49738 C 321.01199,429.93033 320.85476,430.42023 320.85477,430.9671 C 320.85476,431.84211 321.28315,432.27961 322.13992,432.2796 C 322.28119,432.27961 322.3769,432.28758 322.42703,432.30353 C 322.47716,432.31948 322.50222,432.35936 322.50223,432.42316 C 322.50222,432.59634 322.46804,432.78661 322.39969,432.99396 C 322.33132,433.20132 322.24474,433.305 322.13992,433.30499 C 322.10802,433.305 321.99408,433.29246 321.79813,433.2674 C 321.60216,433.24233 321.43126,433.2298 321.28543,433.2298 C 320.80235,433.2298 320.38764,433.42804 320.04129,433.82452 C 319.69493,434.22101 319.52176,434.69953 319.52176,435.26007 C 319.52176,435.86619 319.72456,436.36863 320.13016,436.7674 C 320.53575,437.16616 321.04845,437.36554 321.66824,437.36554 C 322.17866,437.36554 322.68907,437.22882 323.19949,436.95538 C 323.7099,436.68195 324.17475,436.29002 324.59402,435.7796 L 324.59402,436.56573 z M 331.30692,436.56573 C 330.25418,437.67771 329.35183,438.2337 328.59988,438.2337 C 328.29454,438.2337 328.04845,438.12661 327.8616,437.91241 C 327.67475,437.69822 327.58133,437.41111 327.58133,437.05109 C 327.58133,436.56346 327.78185,435.81834 328.18289,434.81573 C 328.39708,434.27798 328.50418,433.93618 328.50418,433.79034 C 328.50418,433.64452 328.44721,433.5716 328.33328,433.57159 C 328.26948,433.5716 328.18517,433.6035 328.08035,433.6673 C 327.98465,433.7311 327.87299,433.81997 327.74539,433.9339 C 327.63146,434.03872 327.50385,434.16632 327.36258,434.31671 C 327.23953,434.44432 327.10737,434.59015 326.96609,434.75421 L 326.58328,435.19855 C 326.41466,435.40363 326.30984,435.6201 326.26883,435.84796 C 326.20047,436.23533 326.1549,436.5908 326.13211,436.91437 C 326.11844,437.15591 326.1116,437.48175 326.1116,437.89191 L 324.60086,438.24738 C 324.55073,437.63214 324.52567,437.17413 324.52567,436.87335 C 324.52567,436.13963 324.61111,435.44464 324.78201,434.78839 C 324.95291,434.13215 325.22749,433.39386 325.60574,432.57355 L 327.27371,432.25226 C 326.9228,433.19562 326.69266,433.93846 326.58328,434.48077 C 327.33068,433.64679 327.92426,433.06916 328.36404,432.74786 C 328.80382,432.42658 329.19461,432.26594 329.53641,432.26593 C 329.76882,432.26594 329.96251,432.35366 330.11746,432.52911 C 330.2724,432.70457 330.34988,432.92446 330.34988,433.18878 C 330.34988,433.62629 330.15391,434.34634 329.76199,435.34894 C 329.49311,436.03709 329.35867,436.48371 329.35867,436.68878 C 329.35867,436.96222 329.47032,437.09894 329.69363,437.09894 C 330.02631,437.09894 330.56407,436.65916 331.30692,435.7796 L 331.30692,436.56573 z M 338.59402,436.56573 C 337.93777,437.21743 337.43761,437.65835 337.09354,437.88849 C 336.74946,438.11863 336.44526,438.2337 336.18094,438.2337 C 335.85737,438.2337 335.60102,438.07648 335.4119,437.76202 C 335.22276,437.44757 335.12592,436.98729 335.12137,436.38116 C 334.74767,436.98729 334.34093,437.44757 333.90115,437.76202 C 333.46137,438.07648 333.06375,438.2337 332.70828,438.2337 C 332.32091,438.2337 331.97911,438.05027 331.68289,437.68341 C 331.38667,437.31655 331.23856,436.88703 331.23856,436.39484 C 331.23856,435.37856 331.60884,434.43634 332.3494,433.56818 C 333.08995,432.70002 333.88634,432.26594 334.73856,432.26593 C 334.97553,432.26594 335.16124,432.30012 335.29568,432.36847 C 335.43012,432.43683 335.57709,432.55305 335.7366,432.7171 L 336.71414,428.62921 C 337.51166,428.44237 338.04942,428.34895 338.32742,428.34894 C 338.41856,428.34895 338.46413,428.38541 338.46414,428.45831 C 338.46413,428.50845 338.3502,428.98013 338.12234,429.87335 C 337.21088,433.44627 336.75515,435.60187 336.75516,436.34015 C 336.75515,436.51333 336.79161,436.65232 336.86453,436.75714 C 336.93744,436.86196 337.03315,436.91437 337.15164,436.91437 C 337.4433,436.91437 337.9241,436.53611 338.59402,435.7796 L 338.59402,436.56573 z" id="text2160" />
  </g>
</svg>
