<svg xmlns="http://www.w3.org/2000/svg" viewBox="0 0 3333 2725" shape-rendering="geometricPrecision" text-rendering="geometricPrecision" image-rendering="optimizeQuality" fill-rule="evenodd" clip-rule="evenodd">
    <path d="
    M3150 459
    c-12 4-25 7-37 11
    c-66 18-134 31-203 39
    c-26 3-49-16-52-42
    c-2-20 8-39 25-47
    c63-38 119-87 164-145
    c19-24 36-49 52-76
    c-29 14-59 26-90 38
    c-72 28-148 49-225 65
    c-17 3-34-3-45-16
    c-57-60-126-109-204-142
    c-75-32-158-50-246-50
    c-170 0-325 69-436 181
    c-112 112-181 266-181 436
    c0 25 1 48 4 71
    c3 24 7 47 12 69
    c6 25-10 51-35 56
    c-5 1-10 1-15 1
    c-278-14-540-87-774-206
    c-221-112-418-266-581-451
    c-13 29-23 58-31 89
    c-14 52-21 106-21 161
    c0 105 26 205 72 291
    c48 90 117 166 202 222
    c22 14 28 44 13 65
    c-10 15-27 22-43 21
    c-56-2-111-10-163-25
    c-29-8-56-17-83-29
    c13 122 62 233 136 323
    c89 108 213 186 356 214
    c26 5 42 30 37 56
    c-4 19-18 32-35 37
    c-29 8-60 14-92 18
    s-63 6-94 6
    c-17 0-35-1-53-2
    c44 94 110 175 192 236
    c100 74 223 119 356 122
    c26 0 47 22 46 48
    c0 15-7 28-18 36
    c-120 94-256 169-402 219
    c-131 45-271 71-417 75
    c98 49 201 90 307 121
    c1 0 1 0 2 1
    c163 48 336 73 516 73
    c548 0 982-209 1290-517
    c363-363 553-864 553-1326
    v-42
    c0-13-1-27-1-42
    c-1-16 7-31 20-40
    c62-45 120-95 174-150
    c17-18 33-36 49-54
    " style="fill:#2aa9e0" fill-rule="nonzero"/></svg>